<svg xmlns="http://www.w3.org/2000/svg" width="448" height="448" viewBox="0 0 448 448"><g transform="translate(-736 -1490)"><g transform="translate(817 1580.822)"><path d="M262.919,133.013s14.3-10.872,3.414-21.745-21.465,3.158-21.465,3.158L135.457,223.861s-25.625,33.072-45.109,13.075c-19.461-20.02,13.063-45.121,13.063-45.121L246.873,48.365s33.479-36.882,64.954-5.43c31.428,31.463-5.559,65.013-5.559,65.013l-161.2,161.2s-51.577,59.582-99.319,11.828,12.422-98.748,12.422-98.748L180.555,59.809s13.7-11.443,3.438-21.745C173.68,27.774,162.26,41.5,162.26,41.5L21.828,181.933s-53.01,58.137,6.188,117.323c59.2,59.221,117.37,6.211,117.37,6.211L338.4,112.434s38.618-42.592-7.423-88.657-88.645-7.446-88.645-7.446L76.248,182.388s-42.534,34.6-3.939,73.17c38.6,38.618,72.564-4.545,72.564-4.545Z" transform="translate(-33.656 -31.044)" fill="silver"/></g><rect width="448" height="448" transform="translate(736 1490)" fill="none"/></g></svg>