<svg xmlns="http://www.w3.org/2000/svg" width="679" height="386" viewBox="0 0 679 386"><g transform="translate(-109 -1850)"><path d="M93.854-86.172a12.093,12.093,0,0,1-4.008.5q-2.672,0-6.012-.084t-7.181-.334q-3.841-.25-7.515-.418a15.643,15.643,0,0,0-8.768,2,17.525,17.525,0,0,0-5.845,5.762,22.97,22.97,0,0,0-3.09,8.266,37.714,37.714,0,0,0-.5,9.352q.5,8.35,2.505,12.692a13.971,13.971,0,0,0,5.094,6.263,14.768,14.768,0,0,0,7.348,2.087q4.258.167,9.269-.083t10.688-.25A41.576,41.576,0,0,1,97.7-38.577a9.62,9.62,0,0,1,5.093,4.175,17.292,17.292,0,0,1,2.756,7.933,21.065,21.065,0,0,1-1.336,9.6,20.926,20.926,0,0,1-7.014,9.1q-5.177,4.092-14.362,6.68T59.619,1a60.572,60.572,0,0,1-18.7-3.257,44.657,44.657,0,0,1-16.282-9.937A54.012,54.012,0,0,1,12.525-30.06Q7.682-41.082,6.346-57.448A94.677,94.677,0,0,1,8.1-86.84a64.839,64.839,0,0,1,9.77-22.712,48.439,48.439,0,0,1,16.366-14.863,51.785,51.785,0,0,1,21.71-6.179,58.966,58.966,0,0,1,15.364,1.336A56.836,56.836,0,0,1,85-124.415a42.3,42.3,0,0,1,10.688,7.682,23.559,23.559,0,0,1,6.1,9.6,16.748,16.748,0,0,1-.167,10.438Q99.866-91.349,93.854-86.172Zm28.056-37.241q2-2.672,6.931-3.841a56.744,56.744,0,0,1,10.6-1.42,67.948,67.948,0,0,1,11.189.418,36.749,36.749,0,0,1,8.517,1.837,5.872,5.872,0,0,1,3.924,4.425,26.843,26.843,0,0,1,.585,7.181q-.167,3.925-.668,7.933a17.512,17.512,0,0,0,.167,6.513,6.247,6.247,0,0,0,3.59,4.676,11.779,11.779,0,0,0,5.928.835,13.6,13.6,0,0,0,5.762-1.921,6.212,6.212,0,0,0,3.089-3.59,56.883,56.883,0,0,0,1.837-10.02q.334-4.342.418-7.515a26.009,26.009,0,0,1,.584-5.26,5.817,5.817,0,0,1,2.338-3.424,18.451,18.451,0,0,1,6.6-2.422,43.769,43.769,0,0,1,9.6-.835,43.726,43.726,0,0,1,10.1,1.336,20.248,20.248,0,0,1,8.266,4.091,8.381,8.381,0,0,1,2.505,5.094,40.216,40.216,0,0,1,.5,6.1q0,6.179-.084,16.533t-.167,22.462q-.083,12.108-.251,24.466t-.418,22.545q-.25,10.187-.5,16.951t-.585,7.264q-.334.668-2.755,1.169a46.282,46.282,0,0,1-6.012.752q-3.59.251-7.765.417T197.561-.5q-4.008,0-7.264-.167T185.537-1q-2.5-.334-3.507-4.843a64.736,64.736,0,0,1-1.336-10.187q-.334-5.678-.334-10.688a35.256,35.256,0,0,0-.334-6.346q-.167-1-3.173-1.754a27.178,27.178,0,0,0-6.6-.751,22.335,22.335,0,0,0-6.764,1q-3.173,1-3.674,3.507a37.814,37.814,0,0,0-.5,7.014v9.1A76.071,76.071,0,0,1,158.9-6.6q-.418,3.758-1.921,4.426a22.231,22.231,0,0,1-7.014,1.5q-5.01.5-10.772.585a92,92,0,0,1-11.189-.5,26.974,26.974,0,0,1-8.266-1.921q-2-.835-2.923-7.432a161.366,161.366,0,0,1-1.253-16.283q-.334-9.686-.084-21.125t.585-22.044q.334-10.6.668-19.038t.5-12.108a119.1,119.1,0,0,1,1.253-13.861A20.264,20.264,0,0,1,121.91-123.413ZM252.5-125.25q1.336-1.67,5.928-2.756a67.181,67.181,0,0,1,10.855-1.5q6.262-.418,13.36-.417t13.611.334q6.513.334,11.523.835a56.5,56.5,0,0,1,7.014,1q2.338.668,4.592,6.012a89.529,89.529,0,0,1,4.259,13.777q2,8.433,3.758,19.038t3.089,21.794q1.336,11.189,2.088,22.127t1,19.79a135.176,135.176,0,0,1-.25,14.78q-.5,5.929-1.837,7.431-.835.835-5.01,1.42t-9.268.835q-5.093.251-10.02.167A69.955,69.955,0,0,1,299.765-1a5.562,5.562,0,0,1-4.092-3.173A31.8,31.8,0,0,1,293-10.688a63.39,63.39,0,0,1-1.67-7.014q-.584-3.34-.751-4.676a3.63,3.63,0,0,0-1.921-1.837,8.356,8.356,0,0,0-3.59-.919,7.848,7.848,0,0,0-3.758.752,4.337,4.337,0,0,0-2.254,3.34q-.5,2.505-.835,5.427t-.835,5.511a28.622,28.622,0,0,1-1.253,4.593,4.412,4.412,0,0,1-2.254,2.672,27.142,27.142,0,0,1-7.432,1.754,83.425,83.425,0,0,1-11.439.751,56.3,56.3,0,0,1-11.022-1q-5.01-1-6.179-3.34-1.5-3.507-1.67-12.859t.668-21.71q.835-12.358,2.5-26.135t3.841-26.052q2.171-12.275,4.592-21.46T252.5-125.25Zm22.378,68.47q0,3.006,3.173,4.425a16.107,16.107,0,0,0,7.014,1.336,16.841,16.841,0,0,0,7.1-1.67q3.256-1.586,3.423-4.593.167-4.342.083-7.849t-.334-7.014q-.25-3.507-.751-7.432t-1-9.1a5.71,5.71,0,0,0-2.839-4.509,9.8,9.8,0,0,0-5.428-1.419,11.014,11.014,0,0,0-5.344,1.5,5.308,5.308,0,0,0-2.755,4.091q-.5,4.175-.919,9.352t-.751,9.937q-.334,4.759-.5,8.35T274.882-56.78Zm65.464-70.808q1.5-.668,8.016-1t15.364-.5q8.851-.167,18.954-.167t18.871.251q8.767.251,14.946.668t7.515,1.086q1.169.668,1.92,3.173a35.99,35.99,0,0,1,1.169,6.012,63.69,63.69,0,0,1,.418,7.515q0,4.008-.167,7.766a66.08,66.08,0,0,1-.585,6.6,17.951,17.951,0,0,1-.918,4.008q-.668,1.837-4.092,2.255a63.121,63.121,0,0,1-7.6.418q-4.175,0-8.1-.167a18.948,18.948,0,0,0-5.594.334q-.835.334-1.086,4.091t-.083,9.77q.167,6.012.585,13.694t.918,15.7q.5,8.016,1,15.7t.668,13.944q.167,6.263,0,10.271T401.635-1.5q-1.5,1.336-6.764,1.67t-11.94.251q-6.68-.083-13.444-.585t-10.939-1q-2.839-.334-3.924-6.6a99.524,99.524,0,0,1-1.169-15.7q-.084-9.435.668-20.374t1.5-20.541q.752-9.6,1.253-16.283t.167-7.682q-.5-1.5-3.34-1.837t-6.179-.5q-3.34-.167-6.429-.417t-4.259-1.42q-.835-.835-1.086-3.674a60.717,60.717,0,0,1-.167-6.6q.083-3.757.5-8.016t1.086-7.849a46.448,46.448,0,0,1,1.5-6.1Q339.511-127.254,340.346-127.588Z" transform="matrix(0.998, -0.07, 0.07, 0.998, 118.643, 2067.959)" fill="#98d79c"/><path d="M11.022-126.419q2.505-1.5,9.686-2.422a137.385,137.385,0,0,1,16.032-1q8.851-.083,17.7.584a86.563,86.563,0,0,1,14.7,2.171,27.429,27.429,0,0,1,11.272,6.6,50.573,50.573,0,0,1,10.02,13.11,80.7,80.7,0,0,1,7.181,18.453A93.5,93.5,0,0,1,100.534-66.3a113.645,113.645,0,0,1-1.921,23.046,98.992,98.992,0,0,1-5.595,19.289A52.749,52.749,0,0,1,84.753-9.937q-4.76,5.595-9.77,7.1a55.145,55.145,0,0,1-9.1,1.67Q60.12-.5,53.357-.25T39.5-.084Q32.4-.167,26.219-.5T15.531-1.42a19.446,19.446,0,0,1-6.012-1.42Q8.35-3.34,7.6-8.767T6.513-22.712Q6.179-31.229,6.1-41.917t.083-21.96q.167-11.272.585-22.044t1.086-19.456q.668-8.684,1.419-14.362T11.022-126.419Zm34.9,87.508a6.321,6.321,0,0,0,1.67,4.676,7.918,7.918,0,0,0,4.091,2.171,11.329,11.329,0,0,0,5.093-.167,13.049,13.049,0,0,0,4.843-2.338A10.759,10.759,0,0,0,64.713-40a44.555,44.555,0,0,0,1.5-8.183q.418-4.425.418-8.6v-6.847q0-2.5-.334-6.263a55.78,55.78,0,0,0-1.169-7.432,28.629,28.629,0,0,0-2.422-6.764,9.945,9.945,0,0,0-4.092-4.425,13.506,13.506,0,0,0-4.592-1.5,9.671,9.671,0,0,0-4.425.334,7.054,7.054,0,0,0-3.34,2.338A7.522,7.522,0,0,0,44.756-83a115.593,115.593,0,0,0-.334,12.775q.167,7.1.417,13.611t.668,11.44Q45.925-40.247,45.925-38.911Zm122.912-89.512a117.183,117.183,0,0,1,20.958,2.755,43.619,43.619,0,0,1,14.362,6.012,28.508,28.508,0,0,1,9.018,9.77A48.787,48.787,0,0,1,218.1-95.858a118.287,118.287,0,0,1,2.088,18.871q.417,10.688.417,24.048,0,16.867-2.421,27.3t-8.267,16.45Q204.074-3.173,194.3-.919A117.183,117.183,0,0,1,169.839,1.5,118.83,118.83,0,0,1,144.622-.25a38.421,38.421,0,0,1-17.869-8.183q-7.181-6.1-11.022-16.867t-4.843-27.806a168.147,168.147,0,0,1,1.169-33.484q2.171-14.445,8.851-24.048a38.708,38.708,0,0,1,18.37-14.112Q150.968-129.258,168.837-128.423ZM156.479-38.911a6.132,6.132,0,0,0,3.59,5.845A15.18,15.18,0,0,0,168-31.479a16.961,16.961,0,0,0,8.016-2.505,7.821,7.821,0,0,0,4.008-6.263q.5-5.511.751-10.354t.167-9.686q-.084-4.843-.417-10.354t-1.169-12.525a7.291,7.291,0,0,0-4.175-6.012,16.236,16.236,0,0,0-8.016-1.67,17.408,17.408,0,0,0-7.933,2.171A7.012,7.012,0,0,0,155.31-83q-.334,5.678-.25,12.775t.417,13.611q.334,6.513.668,11.44T156.479-38.911Zm86.506-86.339q1.336-1.67,5.928-2.756a67.181,67.181,0,0,1,10.855-1.5q6.263-.418,13.36-.417t13.611.334q6.513.334,11.523.835a56.5,56.5,0,0,1,7.014,1q2.338.668,4.592,6.012a89.532,89.532,0,0,1,4.258,13.777q2,8.433,3.758,19.038t3.09,21.794q1.336,11.189,2.088,22.127t1,19.79a135.182,135.182,0,0,1-.251,14.78q-.5,5.929-1.837,7.431-.835.835-5.01,1.42T307.7-.752q-5.093.251-10.02.167A69.955,69.955,0,0,1,290.246-1a5.562,5.562,0,0,1-4.092-3.173,31.8,31.8,0,0,1-2.672-6.513,63.389,63.389,0,0,1-1.67-7.014q-.585-3.34-.751-4.676a3.63,3.63,0,0,0-1.921-1.837,8.356,8.356,0,0,0-3.591-.919,7.848,7.848,0,0,0-3.758.752,4.337,4.337,0,0,0-2.254,3.34q-.5,2.505-.835,5.427t-.835,5.511a28.622,28.622,0,0,1-1.253,4.593,4.412,4.412,0,0,1-2.254,2.672,27.142,27.142,0,0,1-7.431,1.754,83.425,83.425,0,0,1-11.44.751,56.3,56.3,0,0,1-11.022-1q-5.01-1-6.179-3.34-1.5-3.507-1.67-12.859t.668-21.71q.835-12.358,2.505-26.135t3.841-26.052q2.171-12.275,4.592-21.46T242.985-125.25Zm22.378,68.47q0,3.006,3.173,4.425a16.107,16.107,0,0,0,7.014,1.336,16.841,16.841,0,0,0,7.1-1.67q3.256-1.586,3.423-4.593.167-4.342.083-7.849t-.334-7.014q-.25-3.507-.751-7.432t-1-9.1a5.71,5.71,0,0,0-2.839-4.509,9.8,9.8,0,0,0-5.427-1.419,11.014,11.014,0,0,0-5.344,1.5,5.308,5.308,0,0,0-2.755,4.091q-.5,4.175-.918,9.352t-.751,9.937q-.334,4.759-.5,8.35T265.363-56.78Zm110.721,9.519q-1,0-1.253,3.09t-.167,7.849q.084,4.76.251,10.354t0,10.521a63.418,63.418,0,0,1-.751,8.35q-.585,3.424-2.088,3.924a27.356,27.356,0,0,1-4.676.918q-3.173.417-7.1.668t-8.1.25a52.731,52.731,0,0,1-7.6-.5,18.666,18.666,0,0,1-5.594-1.586q-2.171-1.086-2.171-2.755,0-1.336-.167-7.014t-.25-14.112q-.083-8.433-.251-18.871t-.25-21.125q-.083-10.688,0-20.875t.334-18.287q.25-8.1.835-13.193t1.586-5.761q1.837-1.169,7.181-1.921a101.985,101.985,0,0,1,11.356-.918,66.682,66.682,0,0,1,11.272.584q5.26.751,7.1,2.755a25.3,25.3,0,0,1,3.09,5.845q1.921,4.509,4.091,10.688t4.592,13.026q2.422,6.847,4.592,12.609a82.237,82.237,0,0,0,4.175,9.519q2,3.757,3.34,3.757,1.336.167,1.5-4.092a94.384,94.384,0,0,0-.334-10.688q-.5-6.429-1.336-13.944t-1.336-14.112q-.5-6.6-.5-11.022t1.336-4.759a42.15,42.15,0,0,1,7.014-.835,88.232,88.232,0,0,1,10.855,0,56.433,56.433,0,0,1,10.354,1.5q4.676,1.169,5.678,3.841a38.28,38.28,0,0,1,1,7.181q.5,5.845.835,14.529t.668,19.288q.334,10.6.5,21.543t.083,21.292q-.083,10.354-.417,18.537t-1,13.193q-.668,5.01-1.67,5.177a65.284,65.284,0,0,1-7.515,1.086q-5.511.585-11.607.668a68.1,68.1,0,0,1-11.439-.752q-5.344-.835-7.181-3.34A24.134,24.134,0,0,1,392.45-10.6q-1.336-3.758-2.923-8.434t-3.173-9.686q-1.586-5.01-3.34-9.1a44.2,44.2,0,0,0-3.507-6.764Q377.754-47.261,376.084-47.261ZM539.41-86.339a32.777,32.777,0,0,1-12.776,1.086,88.173,88.173,0,0,1-11.523-2.171q-5.428-1.42-9.937-2.338a13.1,13.1,0,0,0-7.849.5q-3.34,1.419-5.344,6.429T489.477-67.3q-.334,6.012-.167,11.857a58.4,58.4,0,0,0,1.169,10.521,24.328,24.328,0,0,0,2.922,7.766,6.672,6.672,0,0,0,5.094,3.424q3.173.5,4.76-1.336a11.566,11.566,0,0,0,2.338-4.76,26.163,26.163,0,0,0,.751-6.513v-6.764q-.167-4.676,2.422-7.181a14.868,14.868,0,0,1,6.513-3.59,30.153,30.153,0,0,1,8.6-1,82.034,82.034,0,0,1,8.684.584,61.9,61.9,0,0,1,6.763,1.169,29.461,29.461,0,0,1,3.09.835q1.169.668,1.753,4.342a65.8,65.8,0,0,1,.668,9.1q.083,5.428-.25,11.857t-1,12.608q-.668,6.179-1.5,11.44a54.17,54.17,0,0,1-1.837,8.266q-.668,2-4.676,3.424A48.543,48.543,0,0,1,525.549.919q-6.012.751-13.363,1T497.467,2q-7.369-.167-14.152-.668T471.843.167A18.535,18.535,0,0,1,460.2-5.762a34.992,34.992,0,0,1-6.95-12.275,84,84,0,0,1-3.684-16.784q-1.172-9.435-1.675-19.455-.5-6.68-.334-14.446t.921-15.614a143.857,143.857,0,0,1,2.264-15.2,100.882,100.882,0,0,1,3.6-13.276,40,40,0,0,1,5.03-10.02,13.145,13.145,0,0,1,6.791-5.26,44.738,44.738,0,0,1,10.312-1.5q6.456-.334,14.151-.083t15.795,1.169q8.1.919,15.114,2.087a118,118,0,0,1,12.107,2.589q5.094,1.42,6.93,2.923,2.672,2.338,3.424,7.6a46.932,46.932,0,0,1,.25,10.855,51.013,51.013,0,0,1-1.92,10.271Q540.913-87.508,539.41-86.339Z" transform="translate(127 2220)" fill="#98d79c"/><g transform="translate(-25 4)"><path d="M85.5,0A85.5,85.5,0,0,1,171,85.5" transform="translate(540 1941)" fill="none" stroke="#98d79c" stroke-linecap="round" stroke-width="34"/><path d="M85.5,0c81.807,0,148.124,64.334,148.124,143.694" transform="translate(540 1882.806)" fill="none" stroke="#98d79c" stroke-linecap="round" stroke-width="34"/><circle cx="32.5" cy="32.5" r="32.5" transform="translate(603 1984)" fill="#98d79c"/></g><rect width="679" height="386" transform="translate(109 1850)" fill="none"/></g></svg>