<svg xmlns="http://www.w3.org/2000/svg" width="448" height="448" viewBox="0 0 448 448"><g transform="translate(-594 -404)"><g transform="translate(631.847 475)" fill="#efefef"><path d="M 186.1534423828125 291 C 91.77912902832031 291 15.00000476837158 229.0934448242188 15.00000476837158 153 C 15.00000476837158 76.90657043457031 91.77912902832031 15.00000476837158 186.1534423828125 15.00000476837158 C 280.5277404785156 15.00000476837158 357.306884765625 76.90657043457031 357.306884765625 153 C 357.306884765625 173.6653137207031 351.7558898925781 193.5455017089844 340.8081359863281 212.0883178710938 L 337.8627014160156 217.0771331787109 L 339.0353698730469 222.7506256103516 L 351.6358337402344 283.7134094238281 L 296.7527465820312 264.7767028808594 L 290.3451843261719 262.5658264160156 L 284.4514465332031 265.913818359375 C 255.5603790283203 282.3253173828125 221.5695037841797 291 186.1534423828125 291 Z" stroke="none"/><path d="M 186.1534423828125 276.0000305175781 C 218.9768981933594 276.0000305175781 250.4058227539062 268.0021667480469 277.0426025390625 252.8711700439453 L 288.8301391601562 246.1752471923828 L 301.6453552246094 250.5969543457031 L 331.6109313964844 260.9362182617188 L 324.3459167480469 225.7867889404297 L 322.0006103515625 214.4397888183594 L 327.8914489746094 204.4621734619141 C 337.4568176269531 188.2607116699219 342.3069152832031 170.9463348388672 342.3069152832031 153.0000305175781 C 342.3069152832031 85.17755889892578 272.2567443847656 30.00002288818359 186.1534423828125 30.00002288818359 C 100.0501327514648 30.00002288818359 29.99998092651367 85.17755889892578 29.99998092651367 153.0000305175781 C 29.99998092651367 220.8224792480469 100.0501327514648 276.0000305175781 186.1534423828125 276.0000305175781 M 371.6606750488281 306.490478515625 L 291.8602905273438 278.9563293457031 C 261.8334350585938 296.0130920410156 225.4162139892578 306.0000305175781 186.1534423828125 306.0000305175781 C 83.34359741210938 306.0000305175781 -1.915564826049376e-05 237.4991760253906 -1.915564826049376e-05 153.0000305175781 C -1.915564826049376e-05 68.50079345703125 83.34359741210938 2.374737050558906e-05 186.1534423828125 2.374737050558906e-05 C 288.9632263183594 2.374737050558906e-05 372.3069152832031 68.50079345703125 372.3069152832031 153.0000305175781 C 372.3069152832031 176.9149475097656 365.6285095214844 199.5526428222656 353.7249145507812 219.7144012451172 L 371.6606750488281 306.490478515625 Z" stroke="none" fill="#b6b6b6"/></g><path d="M56,165.92C56,103,130.672,52,222.785,52" transform="translate(625.061 470.08)" fill="none" stroke="#fff" stroke-linecap="round" stroke-width="29"/><g transform="translate(8.439 10.565)"><g transform="translate(717.561 599.435)" fill="#fff" stroke="#b6b6b6" stroke-width="21"><ellipse cx="19" cy="18.5" rx="19" ry="18.5" stroke="none"/><ellipse cx="19" cy="18.5" rx="8.5" ry="8" fill="none"/></g><g transform="translate(791.561 599.435)" fill="#fff" stroke="#b6b6b6" stroke-width="21"><circle cx="18.5" cy="18.5" r="18.5" stroke="none"/><circle cx="18.5" cy="18.5" r="8" fill="none"/></g><g transform="translate(864.561 599.435)" fill="#fff" stroke="#b6b6b6" stroke-width="21"><ellipse cx="19" cy="18.5" rx="19" ry="18.5" stroke="none"/><ellipse cx="19" cy="18.5" rx="8.5" ry="8" fill="none"/></g></g><rect width="448" height="448" transform="translate(594 404)" fill="none"/></g></svg>