<svg xmlns="http://www.w3.org/2000/svg" width="448" height="448" viewBox="0 0 448 448"><g transform="translate(-33 -36)"><g transform="translate(94 77)" fill="#efefef" stroke-linecap="square"><path d="M 311.9997253417969 351.0003356933594 L 229.5942230224609 350.9996337890625 L 229.5942230224609 262.6227111816406 C 229.5942230224609 240.0151977539062 211.20166015625 221.6226348876953 188.5941009521484 221.6226348876953 L 138.4065399169922 221.6226348876953 C 115.7989730834961 221.6226348876953 97.40641021728516 240.0151977539062 97.40641021728516 262.6227111816406 L 97.40641021728516 350.99951171875 L 14.99997234344482 350.99951171875 L 14.99997234344482 195.5468139648438 L 163.5732269287109 22.98938179016113 L 311.9997253417969 195.3764495849609 L 311.9997253417969 351.0003356933594 Z" stroke="none"/><path d="M 296.999755859375 336.0002136230469 L 296.999755859375 200.9442291259766 L 163.5732269287109 45.97863388061523 L 30.00000190734863 201.1145935058594 L 30.00000190734863 335.9994812011719 L 82.40638732910156 335.9994812011719 L 82.40638732910156 262.6227111816406 C 82.40638732910156 231.7441864013672 107.5279235839844 206.6226501464844 138.4065399169922 206.6226501464844 L 188.5941619873047 206.6226501464844 C 219.4726867675781 206.6226501464844 244.59423828125 231.7441864013672 244.59423828125 262.6227111816406 L 244.59423828125 335.999755859375 L 296.999755859375 336.0002136230469 M 326.999755859375 366.00048828125 L 326.9986877441406 366.00048828125 L 214.59423828125 365.9994812011719 L 214.59423828125 262.6227111816406 C 214.59423828125 248.2861785888672 202.9306182861328 236.6226501464844 188.5941619873047 236.6226501464844 L 138.4065399169922 236.6226501464844 C 124.0699996948242 236.6226501464844 112.4063873291016 248.2861785888672 112.4063873291016 262.6227111816406 L 112.4063873291016 365.9994812011719 L 1.258263182535302e-06 365.9994812011719 L 1.258263182535302e-06 188.9577178955078 L 0.8793089389801025 188.9577178955078 L 163.5732269287109 0.0001055532629834488 L 326.2671508789062 188.9577178955078 L 326.999755859375 188.9577178955078 L 326.999755859375 365.9994812011719 L 326.999755859375 366.00048828125 Z" stroke="none" fill="#b6b6b6"/></g><rect width="179.413" height="34.862" rx="17.431" transform="matrix(0.656, -0.755, 0.755, 0.656, 137.153, 279.392)" fill="#fff"/><rect width="448" height="448" transform="translate(33 36)" fill="none"/></g></svg>