<svg xmlns="http://www.w3.org/2000/svg" width="448" height="448" viewBox="0 0 448 448"><g transform="translate(-1345 -491)"><g transform="translate(1420 566)"><path d="M274.707,196.044a169.575,169.575,0,0,1-53.255-8.483c-8.337-2.844-18.586-.235-23.674,4.991L164.2,217.9c-38.946-20.79-62.937-44.772-83.442-83.426l24.605-32.708A24.141,24.141,0,0,0,111.3,77.31a169.835,169.835,0,0,1-8.515-53.343A23.993,23.993,0,0,0,78.816,0H23.966A23.994,23.994,0,0,0,0,23.966C0,175.441,123.232,298.672,274.707,298.672a23.994,23.994,0,0,0,23.966-23.966v-54.7A23.994,23.994,0,0,0,274.707,196.044Z" fill="silver"/></g><rect width="448" height="448" transform="translate(1345 491)" fill="none"/></g></svg>