<svg xmlns="http://www.w3.org/2000/svg" width="448" height="448" viewBox="0 0 448 448"><g transform="translate(-1410 -566)"><g transform="translate(1472 635)"><path d="M8.75,17.612V80.2A10.118,10.118,0,0,0,27.023,86.2L63.637,36.371Z" transform="translate(109.337 220.073)" fill="#98d79c"/><path d="M319.643,1.877a10.126,10.126,0,0,0-10.554-.729L5.439,159.721a10.126,10.126,0,0,0,1.4,18.556l84.415,28.854L271.032,53.417,131.92,221.018l141.474,48.355a10.356,10.356,0,0,0,3.266.54,10.113,10.113,0,0,0,10.014-8.624L323.786,11.621a10.139,10.139,0,0,0-4.143-9.744Z" transform="translate(0 0)" fill="#98d79c"/></g><rect width="448" height="448" transform="translate(1410 566)" fill="none"/></g></svg>