<svg xmlns="http://www.w3.org/2000/svg" width="448" height="448" viewBox="0 0 448 448"><g transform="translate(-67 -554)"><g transform="translate(110 597)" fill="#efefef"><path d="M 212.3453826904297 337.9998168945312 L 147.6546783447266 337.9998168945312 L 144.0121917724609 313.2094421386719 L 142.7393035888672 304.5463256835938 L 134.5698394775391 301.3951110839844 C 133.3016662597656 300.9059143066406 132.0422515869141 300.39697265625 130.7917785644531 299.8681640625 C 128.9846038818359 299.103759765625 127.1918334960938 298.2959899902344 125.4176635742188 297.4470520019531 L 117.1837158203125 293.5070495605469 L 109.9007186889648 299.0096130371094 L 91.73815155029297 312.732177734375 L 49.26696395874023 270.2616271972656 L 62.98995590209961 252.0989837646484 L 68.49272155761719 244.8159790039062 L 64.55265808105469 236.5819244384766 C 63.70372009277344 234.8076934814453 62.89601135253906 233.0151519775391 62.13154220581055 231.2078094482422 C 61.34036636352539 229.3370971679688 60.59318923950195 227.4449768066406 59.89118957519531 225.5354461669922 L 56.81454086303711 217.1668701171875 L 47.99307250976562 215.8706817626953 L 24.00001335144043 212.3453369140625 L 24.00001335144043 147.6546630859375 L 48.79042434692383 144.0121002197266 L 57.45389556884766 142.7391510009766 L 60.60495376586914 134.5692749023438 C 61.09401321411133 133.3012084960938 61.6028938293457 132.0420989990234 62.13166046142578 130.791748046875 C 62.89607238769531 128.9845123291016 63.70354080200195 127.1924514770508 64.55254364013672 125.4181594848633 L 68.49236297607422 117.1843338012695 L 62.98977661132812 109.9013900756836 L 49.2668342590332 91.73834991455078 L 91.73818206787109 49.26762008666992 L 109.9001312255859 62.98968505859375 L 117.1834259033203 68.49250793457031 L 125.4175415039062 64.55204010009766 C 127.1920166015625 63.70286178588867 128.9840698242188 62.89533233642578 130.7916564941406 62.13086318969727 C 132.0880126953125 61.58256912231445 133.3941345214844 61.05568695068359 134.7088317871094 60.55039215087891 L 142.8934783935547 57.40462875366211 L 144.1681365966797 48.72945022583008 L 147.6546936035156 24.99992179870605 L 212.3453521728516 24.99992179870605 L 215.7152557373047 47.93497848510742 L 217.0131378173828 56.76827621459961 L 225.3965454101562 59.83915710449219 C 227.3536529541016 60.55609893798828 229.2926025390625 61.32039260864258 231.2093658447266 62.1309814453125 C 233.0153656005859 62.89492034912109 234.8075408935547 63.70256805419922 236.5817260742188 64.55156707763672 L 244.8157806396484 68.49198150634766 L 252.0990753173828 62.98921585083008 L 270.2614440917969 49.266845703125 L 312.7322082519531 91.73820495605469 L 299.0101318359375 109.9001541137695 L 293.5072937011719 117.1834487915039 L 297.4477844238281 125.4175720214844 C 298.2969665527344 127.1920394897461 299.1044921875 128.9842224121094 299.8690185546875 130.7918090820312 C 300.4171752929688 132.0877990722656 300.9440612792969 133.3938598632812 301.4493103027344 134.7085113525391 L 304.5949401855469 142.8934478759766 L 313.2703552246094 144.1680908203125 L 336.9999084472656 147.6546936035156 L 336.9999084472656 212.3453216552734 L 314.0646057128906 215.7152099609375 L 305.2310791015625 217.0130920410156 L 302.1602478027344 225.3967437744141 C 301.4434814453125 227.3535614013672 300.6794738769531 229.2916870117188 299.8690185546875 231.2080993652344 C 299.1044311523438 233.0157470703125 298.2969055175781 234.8079223632812 297.4476623535156 236.5825042724609 L 293.5075378417969 244.8165130615234 L 299.0101928710938 252.0996246337891 L 312.7322082519531 270.2616271972656 L 270.2614440917969 312.7330017089844 L 252.0984191894531 299.0101623535156 L 244.8154296875 293.507568359375 L 236.58154296875 297.447509765625 C 234.8073120117188 298.2965087890625 233.0154876708984 299.1039733886719 231.2081909179688 299.8684387207031 C 229.3377838134766 300.6595153808594 227.4459533691406 301.4066162109375 225.5360107421875 302.1086730957031 L 217.1669616699219 305.1851501464844 L 215.8707122802734 314.0070495605469 L 212.3453826904297 337.9998168945312 Z M 180.9998931884766 147.3860931396484 C 162.4651947021484 147.3860931396484 147.3861236572266 162.4652099609375 147.3861236572266 180.9999237060547 C 147.3861236572266 199.53515625 162.4651947021484 214.6146240234375 180.9998931884766 214.6146240234375 C 199.5351257324219 214.6146240234375 214.6146087646484 199.53515625 214.6146087646484 180.9999237060547 C 214.6146087646484 162.4652099609375 199.5351257324219 147.3860931396484 180.9998931884766 147.3860931396484 Z" stroke="none"/><path d="M 199.3883361816406 322.9997863769531 L 201.0300903320312 311.8264465332031 L 203.6224517822266 294.1832885742188 L 220.3598175048828 288.0301513671875 C 222.045166015625 287.4105834960938 223.7144470214844 286.7513732910156 225.3648834228516 286.0533752441406 C 226.9597473144531 285.3787231445312 228.5408782958984 284.6662292480469 230.1065979003906 283.9169921875 L 246.5745239257812 276.0366516113281 L 261.1408081054688 287.0419921875 L 268.8867797851562 292.8943481445312 L 292.8937377929688 268.8870239257812 L 287.0420837402344 261.1419982910156 L 276.0368041992188 246.5758666992188 L 283.9169616699219 230.1080017089844 C 284.6665344238281 228.5416412353516 285.3793029785156 226.9597930908203 286.0537414550781 225.3652191162109 C 286.768798828125 223.6745758056641 287.4428100585938 221.9646453857422 288.0751647949219 220.2382202148438 L 294.2165832519531 203.4704284667969 L 311.884033203125 200.87451171875 L 321.9998779296875 199.38818359375 L 321.9998779296875 160.6118011474609 L 311.0898132324219 159.0087890625 L 293.7388916015625 156.4593658447266 L 287.4476623535156 140.0894317626953 C 287.001953125 138.9297180175781 286.5371704101562 137.7775115966797 286.0542297363281 136.6355743408203 C 285.3794555664062 135.0402984619141 284.666748046875 133.4587249755859 283.9172973632812 131.892578125 L 276.036376953125 115.4243621826172 L 287.0420227050781 100.8577880859375 L 292.8937377929688 93.11273193359375 L 268.8867492675781 69.10541534423828 L 261.1412963867188 74.95735931396484 L 246.5743865966797 85.96321868896484 L 230.10595703125 78.08171844482422 C 228.5403900146484 77.33250427246094 226.9588165283203 76.61978912353516 225.3667449951172 75.9462890625 C 223.6752471923828 75.23100280761719 221.9641723632812 74.55657958984375 220.2369537353516 73.92386627197266 L 203.4703826904297 67.78193664550781 L 200.8746032714844 50.11550521850586 L 199.3882904052734 39.99993515014648 L 160.6118316650391 39.99993515014648 L 159.0088043212891 50.91000366210938 L 156.4594573974609 68.26043701171875 L 140.0901641845703 74.55186462402344 C 138.93017578125 74.99771881103516 137.7777404785156 75.46257781982422 136.6355895996094 75.94557952880859 C 135.0404510498047 76.620361328125 133.4588775634766 77.33293151855469 131.8929595947266 78.08235931396484 L 115.4245986938476 85.96357727050781 L 100.8578109741211 74.95779418945312 L 93.11274719238281 69.10609436035156 L 69.10543823242188 93.11306762695312 L 74.9578857421875 100.8591461181641 L 85.96273803710938 115.4247207641602 L 78.08345794677734 131.8922271728516 C 77.33416748046875 133.4581451416016 76.62145233154297 135.0399322509766 75.94673919677734 136.6351470947266 C 75.48023986816406 137.7381439208984 75.03137969970703 138.8489379882812 74.59988403320312 139.9674377441406 L 68.29766845703125 156.3068695068359 L 50.97102737426758 158.8527221679688 L 39.00002670288086 160.6116638183594 L 39.00002670288086 199.3882141113281 L 50.17352676391602 201.0299377441406 L 67.81645202636719 203.6222229003906 L 73.96981048583984 220.3592987060547 C 74.58930969238281 222.0442962646484 75.24859619140625 223.7139282226562 75.94695281982422 225.3650817871094 C 76.62152862548828 226.9600830078125 77.33431243896484 228.5419311523438 78.08352661132812 230.1077270507812 L 85.96331024169922 246.5757141113281 L 74.9578857421875 261.1415710449219 L 69.10572814941406 268.8870239257812 L 93.11274719238281 292.8937072753906 L 100.8583831787109 287.0415649414062 L 115.4236679077148 276.0369262695312 L 131.8910980224609 283.9158630371094 C 133.4571685791016 284.6651611328125 135.0394592285156 285.3781433105469 136.6351623535156 286.0530700683594 C 137.7379608154297 286.5195007324219 138.8486022949219 286.9683532714844 139.9671020507812 287.3997192382812 L 156.3069610595703 293.7018737792969 L 158.8528137207031 311.0288696289062 L 160.6117248535156 322.9997863769531 L 199.3883361816406 322.9997863769531 M 180.9998779296875 132.3860778808594 C 207.8060913085938 132.3860778808594 229.6145935058594 154.1941528320312 229.6145935058594 180.9999389648438 C 229.6145935058594 207.80615234375 207.8060913085938 229.6145782470703 180.9998779296875 229.6145782470703 C 154.1941680908203 229.6145782470703 132.3860931396484 207.80615234375 132.3860931396484 180.9999389648438 C 132.3860931396484 154.1941528320312 154.1941680908203 132.3860778808594 180.9998779296875 132.3860778808594 M 225.3023834228516 352.9997863769531 L 134.6976013183594 352.9997863769531 L 129.1715240478516 315.3900146484375 C 127.7540283203125 314.8432922363281 126.3464508056641 314.2744445800781 124.9488143920898 313.6832885742188 C 122.9291000366211 312.8290710449219 120.9258117675781 311.9264221191406 118.9430999755859 310.977783203125 L 90.36359405517578 332.5707092285156 L 29.4282398223877 271.63623046875 L 51.02195358276367 243.0565032958984 C 50.07323837280273 241.0737915039062 49.17073822021484 239.0707244873047 48.31652450561523 237.0510101318359 C 47.43216705322266 234.9600830078125 46.59709548950195 232.8455047607422 45.81245422363281 230.7112884521484 L 9.000025749206543 225.3024291992188 L 9.000025749206543 134.6975708007812 L 46.60980987548828 129.1714324951172 C 47.15652465820312 127.7540054321289 47.72538375854492 126.346435546875 48.31652450561523 124.9487915039062 C 49.17073822021484 122.9291458129883 50.07302474975586 120.9265060424805 51.02166748046875 118.9438629150391 L 29.4282398223877 90.36357879638672 L 90.36359405517578 29.4290771484375 L 118.9425277709961 51.02157592773438 C 120.925666809082 50.07250595092773 122.928596496582 49.17007827758789 124.9488143920898 48.31557846069336 C 126.3973846435547 47.70293426513672 127.8575973510742 47.11386108398438 129.3274536132812 46.54893493652344 L 134.6976013183594 9.999934196472168 L 225.3023834228516 9.999934196472168 L 230.5558776855469 45.75436401367188 C 232.7431030273438 46.55557632446289 234.9098815917969 47.40972137451172 237.0518798828125 48.31557846069336 C 239.0713806152344 49.16986083984375 241.0741729736328 50.07229232788086 243.0566711425781 51.02107620239258 L 271.63623046875 29.42822074890137 L 332.5707397460938 90.36357879638672 L 310.9782409667969 118.9425048828125 C 311.9273071289062 120.9257202148438 312.8297424316406 122.9285736083984 313.6842346191406 124.9487915039062 C 314.296875 126.3973617553711 314.8860168457031 127.8576507568359 315.4508972167969 129.3274383544922 L 351.9998779296875 134.6975708007812 L 351.9998779296875 225.3024291992188 L 316.2450866699219 230.5558624267578 C 315.4440307617188 232.7430114746094 314.590087890625 234.9091491699219 313.6842346191406 237.0510101318359 C 312.8297424316406 239.0712127685547 311.9273071289062 241.0740814208984 310.9783020019531 243.0572967529297 L 332.5707397460938 271.63623046875 L 271.63623046875 332.5715637207031 L 243.0560913085938 310.9782104492188 C 241.0735321044922 311.9269409179688 239.0713806152344 312.8290710449219 237.0518798828125 313.6832885742188 C 234.96044921875 314.56787109375 232.8460998535156 315.4028625488281 230.7113800048828 316.1876525878906 L 225.3023834228516 352.9997863769531 Z M 180.9998779296875 162.3860778808594 C 170.7363128662109 162.3860778808594 162.3860931396484 170.7362976074219 162.3860931396484 180.9999389648438 C 162.3860931396484 191.2635040283203 170.7363128662109 199.6145782470703 180.9998779296875 199.6145782470703 C 191.2643890380859 199.6145782470703 199.6145935058594 191.2635040283203 199.6145935058594 180.9999389648438 C 199.6145935058594 170.7362976074219 191.2643890380859 162.3860778808594 180.9998779296875 162.3860778808594 Z" stroke="none" fill="#b6b6b6"/></g><path d="M118,0A118,118,0,0,1,236,118" transform="translate(189 904) rotate(-90)" fill="none" stroke="#fff" stroke-linecap="round" stroke-width="26"/><rect width="448" height="448" transform="translate(67 554)" fill="none"/></g></svg>