<svg xmlns="http://www.w3.org/2000/svg" width="483" height="399" viewBox="0 0 483 399"><path d="M450,399H33A32.972,32.972,0,0,1,0,366V107A32.973,32.973,0,0,1,33,74h74.878l6.08-46.356a32.171,32.171,0,0,1,5.06-13.727,25.072,25.072,0,0,1,9.712-8.654A25.769,25.769,0,0,1,144.418,0H340.028a25.878,25.878,0,0,1,17.96,7.2c6.2,4.417,10.394,11.868,11.518,20.442L375.587,74H450a32.973,32.973,0,0,1,33,33V366a32.973,32.973,0,0,1-33,33ZM241.5,101a124.4,124.4,0,0,0-24.889,2.509,122.823,122.823,0,0,0-44.16,18.583,123.842,123.842,0,0,0-44.744,54.336,122.869,122.869,0,0,0-7.2,23.182,124.7,124.7,0,0,0,0,49.779,122.858,122.858,0,0,0,18.582,44.161,123.872,123.872,0,0,0,54.337,44.744,122.918,122.918,0,0,0,23.182,7.2,124.742,124.742,0,0,0,49.779,0,122.819,122.819,0,0,0,44.16-18.583,123.852,123.852,0,0,0,44.745-54.337,122.912,122.912,0,0,0,7.2-23.182,124.7,124.7,0,0,0,0-49.779,122.8,122.8,0,0,0-18.582-44.16,123.871,123.871,0,0,0-54.337-44.744,122.858,122.858,0,0,0-23.182-7.2A124.4,124.4,0,0,0,241.5,101Zm0,216A92.5,92.5,0,1,1,334,224.5,92.6,92.6,0,0,1,241.5,317Z" transform="translate(0)" fill="#fff"/></svg>